<?xml version="1.0" standalone="no"?>
<!DOCTYPE svg PUBLIC "-//W3C//DTD SVG 20010904//EN"
 "http://www.w3.org/TR/2001/REC-SVG-20010904/DTD/svg10.dtd">
<svg version="1.0" xmlns="http://www.w3.org/2000/svg"
 width="2000.000000pt" height="2000.000000pt" viewBox="0 0 2000.000000 2000.000000"
 preserveAspectRatio="xMidYMid meet">

<g transform="translate(0.000000,2000.000000) scale(0.100000,-0.100000)"
fill="#000000" stroke="none">
<path d="M10702 14855 c-339 -55 -633 -166 -899 -338 -508 -329 -835 -815
-918 -1365 -18 -114 -20 -392 -5 -507 49 -367 194 -661 451 -911 193 -187 353
-289 886 -565 417 -216 566 -301 731 -416 214 -149 422 -334 600 -533 87 -98
262 -325 262 -341 0 -11 -198 -275 -289 -384 -296 -357 -653 -704 -1031 -999
-68 -54 -278 -208 -465 -342 -187 -134 -360 -260 -385 -278 l-46 -35 -51 77
c-151 227 -298 557 -447 1004 -76 227 -476 1530 -540 1758 -137 490 -226 931
-268 1330 -22 209 -15 588 16 915 33 339 32 529 -4 700 -103 486 -446 869
-965 1075 -319 127 -805 189 -1173 150 -514 -55 -914 -186 -1267 -417 -275
-181 -499 -429 -620 -686 -89 -190 -123 -332 -132 -537 -5 -131 -1 -249 26
-755 26 -482 -61 -1049 -273 -1780 -56 -195 -263 -836 -404 -1255 -253 -749
-490 -1246 -743 -1556 -32 -39 -169 -183 -306 -320 -142 -141 -278 -287 -315
-338 -209 -280 -303 -576 -302 -946 0 -142 4 -194 22 -277 90 -417 347 -737
757 -942 304 -152 648 -223 1080 -222 539 0 1008 102 1425 310 215 107 368
218 525 382 238 248 364 529 381 849 13 235 -25 424 -154 770 -78 212 -115
335 -127 436 l-7 52 104 7 c122 8 704 3 713 -6 17 -18 -97 -279 -217 -494
-174 -312 -248 -571 -248 -865 0 -282 72 -524 223 -750 73 -109 252 -283 372
-363 254 -167 544 -267 914 -313 166 -20 528 -20 720 0 426 46 819 161 1124
330 l98 54 78 -48 c250 -155 483 -246 781 -304 173 -34 325 -47 525 -47 785 1
1445 323 1807 881 127 195 214 418 259 667 14 81 22 188 29 428 17 549 47 728
158 950 62 126 217 345 242 345 13 0 138 -182 221 -321 188 -316 269 -580 289
-938 27 -460 40 -556 111 -766 186 -550 606 -947 1206 -1139 238 -76 467 -108
768 -107 481 1 885 87 1205 257 490 261 771 675 841 1238 15 125 6 433 -16
531 -65 292 -206 538 -436 760 -125 121 -186 170 -484 395 -626 472 -957 771
-1380 1245 -150 168 -373 440 -499 607 l-28 38 45 62 c138 195 400 492 590
669 188 177 363 317 832 669 534 399 643 487 795 640 399 401 589 834 590
1347 0 359 -113 666 -349 947 -220 261 -594 478 -993 576 -231 57 -310 65
-603 65 -281 0 -370 -9 -593 -56 -622 -134 -1133 -548 -1392 -1128 -96 -215
-152 -415 -205 -737 -52 -317 -85 -438 -177 -653 -64 -151 -286 -541 -306
-541 -22 1 -278 371 -367 529 -129 231 -192 429 -245 771 -69 448 -161 747
-311 1006 -73 128 -134 208 -239 317 -242 253 -531 399 -935 473 -123 22 -527
28 -643 9z m555 -570 c387 -61 664 -268 827 -617 84 -180 138 -385 191 -733
34 -218 65 -359 114 -504 129 -387 368 -764 818 -1294 154 -181 236 -218 351
-161 70 35 113 86 267 319 308 467 441 721 540 1025 52 162 80 288 115 510 45
293 94 465 185 656 97 202 270 410 440 532 99 70 275 159 388 196 353 115 798
123 1154 21 361 -104 650 -328 774 -600 51 -112 72 -223 72 -370 1 -356 -133
-644 -434 -942 -161 -159 -362 -319 -704 -563 -415 -295 -736 -560 -996 -819
-216 -217 -366 -389 -536 -618 -140 -188 -178 -250 -203 -332 -50 -159 -15
-246 217 -548 409 -533 862 -1016 1318 -1408 160 -137 302 -250 600 -475 368
-278 460 -356 557 -479 108 -135 160 -267 179 -453 19 -191 -17 -421 -90 -583
-149 -328 -476 -545 -940 -625 -333 -57 -672 -51 -951 17 -560 136 -935 532
-1000 1056 -5 45 -14 179 -20 297 -12 252 -28 379 -71 550 -71 285 -211 591
-408 886 -135 203 -301 415 -386 492 -83 76 -125 95 -199 90 -111 -7 -201 -69
-379 -263 -382 -416 -538 -766 -586 -1315 -6 -69 -13 -246 -16 -395 -3 -148
-10 -299 -16 -335 -77 -489 -398 -854 -898 -1020 -313 -105 -660 -127 -1014
-65 -120 21 -336 89 -443 140 -201 94 -388 251 -495 415 l-16 24 -33 -39
c-311 -368 -981 -597 -1665 -571 -546 22 -924 182 -1113 473 -120 187 -142
480 -54 733 20 57 113 244 207 415 95 175 197 453 226 622 16 93 7 188 -24
257 -56 121 -202 226 -392 278 -78 22 -94 23 -560 23 -427 0 -488 -2 -556 -18
-112 -26 -230 -86 -292 -149 -101 -102 -137 -205 -137 -388 0 -205 34 -354
155 -679 99 -267 116 -331 122 -473 11 -238 -52 -398 -229 -584 -232 -242
-628 -414 -1118 -485 -131 -19 -194 -23 -405 -22 -220 1 -267 4 -396 26 -476
83 -774 288 -876 602 -20 64 -27 107 -31 213 -9 253 45 441 180 626 29 39 174
195 323 346 362 367 472 516 676 915 183 356 304 664 538 1370 554 1666 673
2276 618 3160 -29 457 -31 531 -13 634 50 290 258 554 577 734 330 185 702
277 1127 277 669 0 1151 -252 1296 -677 55 -163 60 -295 25 -653 -20 -196 -24
-292 -24 -580 0 -414 18 -607 96 -1015 84 -442 162 -734 468 -1730 330 -1076
422 -1333 602 -1695 146 -292 241 -429 524 -755 48 -55 102 -122 120 -148 l33
-48 45 63 c124 174 307 329 787 668 795 560 1285 1026 1799 1710 280 373 281
520 8 887 -243 326 -536 618 -849 846 -240 175 -437 289 -953 552 -397 203
-529 286 -672 425 -129 126 -210 263 -252 426 -79 305 -43 620 105 904 73 141
159 253 286 376 248 238 570 395 920 449 110 17 334 12 475 -10z"/>
<path d="M6159 11931 c-20 -22 -47 -66 -59 -98 -12 -32 -59 -233 -105 -448
-46 -214 -107 -489 -135 -610 -148 -637 -203 -954 -216 -1230 -7 -147 3 -218
41 -299 49 -103 145 -175 282 -210 80 -21 389 -22 484 -2 126 27 230 99 282
194 75 138 76 307 7 792 -33 233 -161 947 -190 1060 -35 136 -70 312 -106 519
-39 227 -58 285 -115 336 -33 29 -46 35 -86 35 -41 0 -50 -5 -84 -39z m58
-2343 c-3 -8 -6 -5 -6 6 -1 11 2 17 5 13 3 -3 4 -12 1 -19z"/>
</g>
</svg>
