<?xml version="1.0" standalone="no"?>
<!DOCTYPE svg PUBLIC "-//W3C//DTD SVG 20010904//EN"
 "http://www.w3.org/TR/2001/REC-SVG-20010904/DTD/svg10.dtd">
<svg version="1.0" xmlns="http://www.w3.org/2000/svg"
 width="500.000000pt" height="500.000000pt" viewBox="0 0 500.000000 500.000000"
 preserveAspectRatio="xMidYMid meet">

<g transform="translate(0.000000,500.000000) scale(0.100000,-0.100000)"
fill="#000000" stroke="none">
<path d="M2580 3996 c-72 -15 -134 -52 -194 -115 -58 -63 -86 -124 -94 -203
l-5 -59 -31 6 c-68 14 -66 11 -66 82 0 36 -5 84 -12 105 -17 56 -87 131 -150
159 -47 21 -67 24 -183 24 -125 0 -132 -1 -197 -32 -135 -64 -203 -157 -202
-275 l1 -58 -51 -14 c-28 -9 -92 -35 -143 -60 -300 -146 -526 -383 -564 -591
-33 -179 41 -370 220 -567 34 -36 61 -71 61 -77 0 -6 -10 -11 -22 -11 -27 0
-95 -32 -124 -57 -53 -47 -58 -118 -17 -220 24 -58 28 -82 27 -163 0 -79 -5
-107 -27 -164 -32 -80 -34 -138 -8 -186 44 -83 191 -109 300 -53 44 22 60 38
80 76 22 44 24 54 14 98 -7 35 -7 48 1 45 6 -3 34 -12 63 -21 50 -16 52 -17
46 -46 -8 -43 21 -110 59 -136 49 -33 118 -44 268 -44 146 0 216 11 267 42 29
18 35 19 60 5 142 -73 368 -62 474 24 55 43 107 42 142 -4 34 -44 86 -68 150
-68 75 -1 127 17 176 59 l44 37 19 -27 c33 -45 91 -69 168 -69 67 0 148 25
164 50 4 7 24 0 55 -19 43 -27 58 -31 121 -31 56 0 82 6 124 26 l53 26 45 -20
c101 -44 283 -42 382 5 99 47 149 125 150 235 1 79 -16 130 -57 176 l-30 35
60 62 c115 118 163 216 163 329 -1 78 -27 145 -97 249 -141 209 -375 396 -685
550 -60 30 -108 59 -108 66 0 14 118 118 260 228 114 89 170 160 190 246 15
60 7 137 -20 189 -60 117 -231 188 -387 160 -92 -16 -143 -40 -203 -96 -59
-55 -94 -123 -114 -220 -17 -82 -48 -167 -75 -207 l-18 -28 -36 54 c-46 68
-55 92 -73 192 -26 137 -84 234 -163 275 -37 18 -137 41 -175 39 -12 0 -46 -6
-76 -13z m-609 -112 c45 -14 86 -49 107 -90 7 -13 11 -84 10 -185 -2 -191 4
-226 93 -519 83 -278 122 -363 204 -454 l26 -28 47 43 c27 24 86 72 133 105
116 85 179 143 253 236 74 92 83 116 61 162 -42 89 -163 192 -329 280 -49 27
-102 57 -118 69 -60 44 -86 155 -54 232 22 53 91 120 149 146 69 31 165 31
222 2 72 -37 95 -78 120 -208 10 -52 32 -120 51 -160 42 -85 132 -199 161
-203 46 -7 151 181 179 318 22 110 46 162 100 209 53 47 116 66 209 65 197 -4
294 -157 194 -308 -20 -30 -78 -81 -168 -150 -147 -111 -253 -217 -291 -290
l-24 -45 38 -56 c61 -88 212 -241 321 -326 115 -88 139 -113 154 -152 24 -61
1 -157 -45 -199 -74 -65 -252 -85 -347 -39 -56 28 -113 90 -127 140 -5 20 -10
59 -10 87 0 94 -50 216 -127 312 -44 54 -73 56 -120 5 -80 -84 -102 -140 -112
-288 -9 -125 -29 -177 -84 -219 -56 -43 -105 -58 -188 -58 -95 -1 -165 22
-212 67 -21 21 -39 31 -42 25 -12 -19 -79 -57 -132 -74 -33 -11 -89 -18 -145
-19 -81 -2 -99 1 -143 23 -59 29 -95 78 -95 128 0 20 17 73 39 121 55 119 59
150 28 187 -25 29 -27 29 -146 32 l-121 4 -30 -30 c-38 -38 -39 -74 -5 -179
14 -43 25 -91 25 -106 0 -101 -131 -179 -305 -181 -106 -1 -171 19 -210 65
-32 38 -39 68 -31 124 6 37 20 58 86 131 96 105 141 189 210 389 97 283 113
359 116 535 1 85 2 165 3 178 2 34 75 107 131 131 91 39 197 44 291 15z m-679
-1662 c51 -22 68 -45 68 -91 0 -20 -8 -36 -27 -51 -37 -29 -80 -22 -147 25
-59 41 -98 45 -120 13 -18 -25 -21 -103 -6 -142 13 -36 38 -33 94 10 74 56
116 29 116 -77 0 -87 -34 -110 -102 -69 -18 11 -49 20 -69 20 -31 0 -38 -4
-43 -25 -8 -31 8 -105 34 -155 29 -57 26 -93 -9 -123 -56 -47 -164 -47 -201 0
-26 34 -25 48 10 136 27 68 30 86 30 184 -1 67 -6 121 -15 143 -49 127 -49
127 -38 153 26 57 105 78 274 73 79 -3 117 -9 151 -24z m519 5 c48 -20 71 -50
72 -93 1 -27 -5 -41 -23 -56 -34 -28 -84 -19 -150 26 -92 63 -130 45 -130 -63
0 -100 28 -116 100 -56 23 19 50 35 61 35 31 0 52 -45 52 -110 0 -90 -31 -112
-99 -69 -22 13 -46 19 -71 17 l-38 -3 0 -77 c0 -94 21 -131 78 -136 30 -3 43
4 86 42 57 51 86 57 119 26 16 -16 22 -32 22 -66 0 -59 -13 -82 -58 -101 -48
-20 -247 -29 -336 -15 -112 18 -128 51 -79 165 24 56 27 74 28 182 0 110 -2
125 -28 179 -26 57 -33 98 -21 131 9 21 57 45 113 56 68 12 261 4 302 -14z
m524 -7 c104 -50 116 -178 20 -210 -57 -19 -108 7 -120 61 -9 40 -31 59 -67
59 -61 0 -87 -53 -49 -101 10 -13 66 -48 123 -77 125 -63 175 -110 193 -179
41 -159 -83 -268 -285 -249 -144 13 -220 66 -220 152 0 64 40 104 102 104 49
0 72 -18 102 -77 19 -39 43 -53 87 -53 68 0 92 65 42 112 -16 14 -65 44 -110
67 -138 69 -193 134 -193 228 0 55 30 115 72 146 67 50 218 58 303 17z m335
19 c48 -8 90 -7 162 2 112 14 149 5 173 -42 22 -42 19 -112 -5 -134 -26 -23
-60 -14 -109 30 -45 41 -68 44 -77 10 -3 -13 -4 -100 -2 -192 3 -146 6 -173
24 -208 47 -89 39 -135 -28 -165 -52 -23 -87 -25 -133 -6 -51 22 -55 53 -19
151 25 71 29 96 32 219 5 173 -2 226 -29 226 -10 0 -36 -15 -57 -34 -49 -44
-86 -54 -112 -31 -28 26 -27 103 1 139 37 47 69 53 179 35z m715 3 c57 -19 59
-24 66 -139 9 -140 62 -320 120 -407 21 -33 39 -69 39 -81 0 -65 -110 -113
-193 -84 -51 17 -68 53 -48 102 7 18 18 44 24 59 15 36 2 49 -56 55 -78 9
-102 -21 -76 -96 6 -17 8 -43 5 -56 -13 -52 -120 -88 -190 -65 -71 23 -74 77
-11 151 74 87 147 310 142 436 -2 53 1 65 22 87 36 38 104 54 156 38z m642
-20 c52 -27 83 -63 89 -104 9 -52 -17 -94 -65 -109 -55 -16 -89 3 -121 66 -22
45 -29 50 -61 53 -44 4 -69 -17 -69 -58 0 -37 38 -69 150 -125 153 -77 195
-131 188 -240 -5 -77 -35 -122 -105 -155 -39 -19 -65 -24 -143 -24 -119 -1
-173 15 -222 64 -33 33 -38 44 -38 85 0 38 5 52 29 76 24 23 38 29 73 29 49 0
72 -18 102 -77 20 -39 43 -53 90 -53 25 0 39 6 50 22 37 52 8 90 -123 157
-153 79 -198 137 -189 248 7 82 54 134 145 159 63 18 170 11 220 -14z"/>
<path d="M1800 3468 c-18 -41 -79 -343 -82 -401 -3 -78 18 -100 96 -100 90 0
112 32 96 146 -17 126 -62 352 -73 365 -14 18 -26 15 -37 -10z"/>
<path d="M3306 1979 c-9 -39 -16 -89 -16 -111 l0 -39 38 3 37 3 -1 50 c-2 62
-23 165 -34 165 -4 0 -15 -32 -24 -71z"/>
</g>
</svg>
